<?xml version="1.0" encoding="UTF-8"?>
<svg xmlns="http://www.w3.org/2000/svg" width="420" height="360">
  <text x="20" y="28" font-size="15" font-family="sans-serif">Confusion Matrix — tfidf_logreg</text>
  <text x="20" y="350" font-size="11">True \ Predicted</text>
  <rect x="120" y="80" width="66" height="66" fill="rgb(116,177,224)" stroke="#999"/><text x="153" y="119" text-anchor="middle" font-size="14">494</text><rect x="190" y="80" width="66" height="66" fill="rgb(226,239,248)" stroke="#999"/><text x="223" y="119" text-anchor="middle" font-size="14">102</text><rect x="260" y="80" width="66" height="66" fill="rgb(237,245,251)" stroke="#999"/><text x="293" y="119" text-anchor="middle" font-size="14">63</text><text x="110" y="115" text-anchor="end" font-size="12">negative</text><text x="155" y="70" text-anchor="middle" font-size="12">negative</text><rect x="120" y="150" width="66" height="66" fill="rgb(244,249,252)" stroke="#999"/><text x="153" y="189" text-anchor="middle" font-size="14">36</text><rect x="190" y="150" width="66" height="66" fill="rgb(215,233,246)" stroke="#999"/><text x="223" y="189" text-anchor="middle" font-size="14">140</text><rect x="260" y="150" width="66" height="66" fill="rgb(237,245,251)" stroke="#999"/><text x="293" y="189" text-anchor="middle" font-size="14">64</text><text x="110" y="185" text-anchor="end" font-size="12">neutral</text><text x="225" y="70" text-anchor="middle" font-size="12">neutral</text><rect x="120" y="220" width="66" height="66" fill="rgb(223,237,247)" stroke="#999"/><text x="153" y="259" text-anchor="middle" font-size="14">113</text><rect x="190" y="220" width="66" height="66" fill="rgb(214,232,245)" stroke="#999"/><text x="223" y="259" text-anchor="middle" font-size="14">145</text><rect x="260" y="220" width="66" height="66" fill="rgb(75,155,215)" stroke="#999"/><text x="293" y="259" text-anchor="middle" font-size="14">640</text><text x="110" y="255" text-anchor="end" font-size="12">positive</text><text x="295" y="70" text-anchor="middle" font-size="12">positive</text>
</svg>
